<?xml version="1.0" encoding="UTF-8"?>
<svg id="Camada_1" xmlns="http://www.w3.org/2000/svg" version="1.1" xmlns:xlink="http://www.w3.org/1999/xlink" viewBox="0 0 242.7 128">
  <!-- Generator: Adobe Illustrator 29.6.1, SVG Export Plug-In . SVG Version: 2.1.1 Build 9)  -->
  <defs>
    <style>
      .st0 {
        fill: url(#Gradiente_sem_nome_2);
      }

      .st1 {
        fill: #1b2d65;
      }

      .st2 {
        fill: url(#Gradiente_sem_nome_3);
      }
    </style>
    <radialGradient id="Gradiente_sem_nome_3" data-name="Gradiente sem nome 3" cx="46.8" cy="56.9" fx="46.8" fy="67" r="40.8" gradientTransform="translate(0 137.2) scale(1 -.9)" gradientUnits="userSpaceOnUse">
      <stop offset=".4" stop-color="#b40d60"/>
      <stop offset=".7" stop-color="#da1f75"/>
    </radialGradient>
    <linearGradient id="Gradiente_sem_nome_2" data-name="Gradiente sem nome 2" x1="46.6" y1="91.9" x2="46.6" y2="130.5" gradientTransform="translate(0 129.8) scale(1 -1)" gradientUnits="userSpaceOnUse">
      <stop offset="0" stop-color="#d52075"/>
      <stop offset="1" stop-color="#f08b30"/>
    </linearGradient>
  </defs>
  <g>
    <path class="st2" d="M38.4,124.7c-11.2,10.9-29.2-9.3-34-19-11.9-24.5,1.3-52.2,26.4-60.8,34.4-11.8,72.2,18.4,60.6,54.9-3.3,10.4-14,24.2-24.7,27.6-10.6,3.4-18.4-7.6-13.9-17.2,3.4-7.2,13.1-9.3,15.9-17.8,3.2-9.8-5.2-18.7-15.2-15.2-2,.7-4.6,3.2-6.2,3.3-2.5.2-3.3-1.6-5.3-2.6-10.8-5.5-21,4.4-16.9,15.3,3.1,8.3,12.5,10.1,15.6,17.7,2,4.8,1.4,10.1-2.4,13.8h0Z"/>
    <path class="st0" d="M44.5,38.8c28.8,2.6,28.7-42.7-1.5-38.6-21.4,2.9-20.7,36.6,1.5,38.6Z"/>
  </g>
  <g>
    <path class="st1" d="M125.4,32.3v2.8h-11.3v8.8h9.2v2.8h-9.2v11.7h-3.4v-26.1h14.7Z"/>
    <path class="st1" d="M147.7,37.9v20.5h-3.4v-3c-.6,1-1.6,1.9-2.7,2.4s-2.4.9-3.8.9-3-.3-4.3-1c-1.3-.7-2.3-1.7-3-3-.7-1.3-1.1-2.9-1.1-4.8v-12h3.4v11.6c0,2,.5,3.6,1.5,4.7s2.4,1.6,4.2,1.6,3.3-.6,4.3-1.7,1.6-2.8,1.6-4.9v-11.3h3.4Z"/>
    <path class="st1" d="M169.5,39.8c1.5,1.5,2.3,3.7,2.3,6.5v12.1h-3.4v-11.6c0-2-.5-3.6-1.5-4.7s-2.4-1.6-4.2-1.6-3.2.6-4.3,1.7-1.6,2.8-1.6,4.9v11.3h-3.4v-20.5h3.4v2.9c.7-1,1.6-1.9,2.7-2.4s2.4-.9,3.8-.9c2.5,0,4.5.8,6.1,2.3Z"/>
    <path class="st1" d="M177.4,42.6c.8-1.6,2-2.8,3.5-3.7,1.5-.9,3.1-1.3,5-1.3s3.1.4,4.5,1.1c1.4.7,2.4,1.7,3.1,2.9v-10.8h3.4v27.7h-3.4v-3.9c-.7,1.2-1.7,2.2-3,3-1.3.8-2.9,1.2-4.6,1.2s-3.5-.4-5-1.3c-1.5-.9-2.7-2.2-3.5-3.8-.8-1.6-1.3-3.5-1.3-5.5s.4-3.9,1.3-5.5ZM192.6,44.1c-.6-1.1-1.5-2-2.5-2.6s-2.2-.9-3.5-.9-2.4.3-3.5.9c-1,.6-1.9,1.5-2.5,2.6s-.9,2.5-.9,4,.3,2.9.9,4.1,1.5,2,2.5,2.7c1,.6,2.2.9,3.5.9s2.4-.3,3.5-.9c1.1-.6,1.9-1.5,2.5-2.7.6-1.2.9-2.5.9-4.1s-.3-2.9-.9-4Z"/>
    <path class="st1" d="M206.4,57.4c-1.6-.9-2.8-2.1-3.7-3.7-.9-1.6-1.3-3.5-1.3-5.6s.5-3.9,1.4-5.6,2.2-2.8,3.7-3.7,3.3-1.3,5.3-1.3,3.7.4,5.3,1.3,2.8,2.1,3.7,3.7c.9,1.6,1.4,3.5,1.4,5.6s-.5,4-1.4,5.6c-.9,1.6-2.2,2.8-3.8,3.7-1.6.9-3.4,1.3-5.3,1.3s-3.7-.4-5.2-1.3ZM215.1,54.9c1.1-.6,1.9-1.4,2.6-2.6.7-1.1,1-2.5,1-4.2s-.3-3-1-4.2c-.6-1.1-1.5-2-2.5-2.6-1-.6-2.2-.8-3.4-.8s-2.4.3-3.4.8c-1,.6-1.9,1.4-2.5,2.6-.6,1.1-.9,2.5-.9,4.2s.3,3.1.9,4.2c.6,1.1,1.4,2,2.4,2.6,1,.6,2.1.8,3.4.8s2.4-.3,3.4-.9Z"/>
    <path class="st1" d="M111.2,95.1c-2-1.5-3-3.5-3.2-6.3h7.8c0,.9.3,1.6.8,2,.5.4,1.1.6,1.8.6s1.2-.2,1.7-.5.7-.8.7-1.4-.4-1.4-1.1-1.8-1.9-.9-3.5-1.4c-1.7-.6-3.1-1.1-4.2-1.7-1.1-.5-2-1.3-2.8-2.4-.8-1-1.2-2.4-1.2-4.1s.4-3.1,1.3-4.4c.8-1.2,2-2.1,3.5-2.7,1.5-.6,3.2-.9,5.1-.9,3.1,0,5.5.7,7.3,2.1,1.8,1.4,2.8,3.4,2.9,6h-8c0-.8-.3-1.4-.7-1.8-.5-.4-1.1-.6-1.8-.6s-1,.2-1.3.5c-.3.3-.5.8-.5,1.4s.2.9.6,1.3c.4.4.9.7,1.4.9s1.4.6,2.5,1c1.7.6,3,1.1,4.1,1.7,1.1.6,2,1.3,2.8,2.4.8,1,1.2,2.3,1.2,3.8s-.4,3-1.2,4.2-1.9,2.2-3.4,3c-1.5.7-3.2,1.1-5.3,1.1-3.1,0-5.6-.7-7.6-2.2Z"/>
    <path class="st1" d="M136.1,96c-1.7-.9-3-2.1-3.9-3.7-.9-1.6-1.4-3.5-1.4-5.7s.5-4.1,1.4-5.7,2.3-2.9,3.9-3.7c1.7-.9,3.5-1.3,5.6-1.3s4,.4,5.6,1.3c1.7.9,3,2.1,3.9,3.7s1.4,3.5,1.4,5.7-.5,4.1-1.4,5.7-2.3,2.9-3.9,3.8c-1.7.9-3.6,1.3-5.6,1.3s-4-.4-5.6-1.3ZM144.3,89.8c.7-.8,1-1.9,1-3.3s-.3-2.5-1-3.3c-.7-.7-1.5-1.1-2.5-1.1s-1.8.4-2.5,1.1c-.7.7-1,1.8-1,3.3s.3,2.5,1,3.3c.6.7,1.5,1.1,2.5,1.1s1.9-.4,2.6-1.1Z"/>
    <path class="st1" d="M155.9,80.8c.9-1.6,2.1-2.9,3.8-3.7,1.6-.9,3.4-1.3,5.5-1.3s4.9.7,6.7,2.2c1.8,1.5,3,3.5,3.5,6.1h-7.8c-.4-1.4-1.3-2.1-2.6-2.1s-1.7.4-2.2,1.1c-.5.8-.8,1.9-.8,3.3s.3,2.6.8,3.4c.5.8,1.3,1.2,2.2,1.2,1.3,0,2.2-.7,2.6-2.1h7.8c-.5,2.6-1.7,4.6-3.5,6.1-1.8,1.5-4.1,2.2-6.7,2.2s-3.9-.4-5.5-1.3c-1.6-.9-2.9-2.1-3.8-3.7-.9-1.6-1.3-3.5-1.3-5.7s.4-4.1,1.3-5.7Z"/>
    <path class="st1" d="M179.1,73c-.8-.7-1.2-1.6-1.2-2.7s.4-2,1.2-2.7c.8-.7,1.8-1.1,3.1-1.1s2.3.4,3.1,1.1c.8.7,1.2,1.6,1.2,2.7s-.4,2-1.2,2.7c-.8.7-1.8,1.1-3.1,1.1s-2.3-.4-3.1-1.1ZM185.8,76v21h-7.3v-21h7.3Z"/>
    <path class="st1" d="M190,80.8c.8-1.6,1.9-2.9,3.2-3.7,1.4-.9,2.9-1.3,4.5-1.3s2.7.3,3.7.9,1.9,1.3,2.4,2.3v-2.9h7.3v21h-7.3v-2.9c-.6,1-1.4,1.7-2.4,2.3s-2.3.9-3.7.9-3.2-.4-4.5-1.3c-1.4-.9-2.4-2.1-3.2-3.8s-1.2-3.5-1.2-5.7.4-4.1,1.2-5.7ZM202.8,83.3c-.7-.8-1.6-1.2-2.7-1.2s-2,.4-2.7,1.1c-.7.8-1.1,1.8-1.1,3.2s.4,2.4,1.1,3.2c.7.8,1.6,1.2,2.7,1.2s2-.4,2.7-1.2c.7-.8,1.1-1.8,1.1-3.2s-.4-2.4-1.1-3.2Z"/>
    <path class="st1" d="M222.7,69.4v27.7h-7.3v-27.7h7.3Z"/>
  </g>
  <g>
    <path class="st1" d="M117.3,108.6v9h-1.2v-6.7l-3,6.7h-.8l-3-6.8v6.8h-1.2v-9h1.3l3.3,7.5,3.3-7.5h1.3Z"/>
    <path class="st1" d="M121.1,117.1c-.7-.4-1.2-.9-1.7-1.7-.4-.7-.6-1.5-.6-2.4s.2-1.7.6-2.4c.4-.7,1-1.3,1.7-1.7.7-.4,1.5-.6,2.3-.6s1.6.2,2.3.6c.7.4,1.2.9,1.6,1.7.4.7.6,1.5.6,2.4s-.2,1.7-.6,2.4c-.4.7-.9,1.3-1.6,1.7s-1.5.6-2.3.6-1.6-.2-2.3-.6ZM125.1,116.2c.5-.3.9-.7,1.2-1.3s.4-1.2.4-1.9-.1-1.4-.4-1.9-.7-1-1.2-1.3-1.1-.4-1.7-.4-1.2.1-1.7.4c-.5.3-.9.7-1.2,1.3-.3.5-.4,1.2-.4,1.9s.1,1.4.4,1.9c.3.5.7,1,1.2,1.3.5.3,1.1.4,1.7.4s1.2-.1,1.7-.4Z"/>
    <path class="st1" d="M136.4,111.2c-.3-.5-.6-.9-1.1-1.2-.5-.3-1-.4-1.7-.4s-1.2.1-1.7.4c-.5.3-.9.7-1.2,1.3-.3.5-.4,1.2-.4,1.9s.1,1.3.4,1.9c.3.5.7,1,1.2,1.2.5.3,1.1.4,1.7.4s1.6-.3,2.2-.8c.6-.5.9-1.3,1-2.2h-3.6v-1h4.9v.9c0,.8-.3,1.4-.7,2.1s-.9,1.1-1.6,1.5c-.7.4-1.4.5-2.2.5s-1.6-.2-2.3-.6c-.7-.4-1.2-.9-1.7-1.7-.4-.7-.6-1.5-.6-2.4s.2-1.7.6-2.4c.4-.7,1-1.3,1.7-1.7.7-.4,1.5-.6,2.3-.6s1.8.2,2.6.7c.7.5,1.3,1.2,1.6,2h-1.4Z"/>
    <path class="st1" d="M140.9,108.5v9.1h-1.2v-9.1h1.2Z"/>
    <path class="st1" d="M151.8,109.1c.7.4,1.3.9,1.7,1.6.4.7.6,1.5.6,2.4s-.2,1.7-.6,2.4c-.4.7-.9,1.2-1.7,1.6-.7.4-1.6.5-2.6.5h-2.8v-9.1h2.8c1,0,1.9.2,2.6.6ZM151.9,115.7c.6-.6.9-1.5.9-2.6s-.3-2-.9-2.7-1.5-1-2.7-1h-1.6v7.2h1.6c1.2,0,2.1-.3,2.7-.9Z"/>
    <path class="st1" d="M161,115.6h-4l-.7,2h-1.3l3.3-9.1h1.4l3.3,9.1h-1.3l-.7-2ZM160.7,114.6l-1.6-4.6-1.6,4.6h3.3Z"/>
    <path class="st1" d="M165.7,117.4c-.5-.2-.8-.5-1.1-.9-.3-.4-.4-.8-.4-1.3h1.3c0,.4.2.8.5,1.1.3.3.8.4,1.4.4s1-.1,1.3-.4.5-.6.5-1.1,0-.6-.3-.8-.4-.4-.7-.5c-.3-.1-.7-.2-1.2-.4-.6-.2-1.1-.3-1.4-.5-.4-.2-.7-.4-.9-.7-.3-.3-.4-.8-.4-1.4s.1-.9.4-1.3c.3-.4.6-.7,1.1-.9.5-.2,1-.3,1.6-.3.9,0,1.6.2,2.1.6.5.4.9,1,.9,1.7h-1.3c0-.3-.2-.7-.5-.9-.3-.3-.7-.4-1.3-.4s-.9.1-1.2.4c-.3.3-.5.6-.5,1.1s0,.6.3.8c.2.2.4.4.7.5.3.1.7.2,1.2.4.6.2,1.1.3,1.5.5.4.2.7.4.9.7.3.3.4.8.4,1.4s-.1.9-.4,1.3c-.2.4-.6.7-1,1-.5.2-1,.4-1.6.4s-1.1-.1-1.6-.3Z"/>
    <path class="st1" d="M175.8,110.7c.4-.7.9-1.3,1.6-1.7.7-.4,1.5-.6,2.3-.6s1.9.2,2.6.7c.7.5,1.3,1.2,1.6,2h-1.4c-.3-.5-.6-1-1.1-1.3s-1-.4-1.7-.4-1.2.1-1.7.4-.9.7-1.2,1.3c-.3.5-.4,1.2-.4,1.9s.1,1.4.4,1.9c.3.5.7,1,1.2,1.3s1.1.4,1.7.4,1.2-.1,1.7-.4c.5-.3.8-.7,1.1-1.3h1.4c-.3.9-.9,1.5-1.6,2-.7.5-1.6.7-2.6.7s-1.6-.2-2.3-.6c-.7-.4-1.2-.9-1.6-1.7-.4-.7-.6-1.5-.6-2.4s.2-1.7.6-2.4Z"/>
    <path class="st1" d="M190.5,117.6l-2.2-3.7h-1.4v3.7h-1.2v-9.1h2.9c.7,0,1.3.1,1.7.4.5.2.8.6,1.1,1s.4.9.4,1.4-.2,1.2-.5,1.7c-.4.5-.9.8-1.6,1l2.3,3.8h-1.4ZM186.9,112.9h1.8c.6,0,1.1-.2,1.5-.5.3-.3.5-.7.5-1.3s-.2-1-.5-1.3c-.3-.3-.8-.4-1.5-.4h-1.8v3.4Z"/>
    <path class="st1" d="M194.8,108.5v5.8c0,.8.2,1.4.6,1.8.4.4.9.6,1.7.6s1.2-.2,1.6-.6c.4-.4.6-1,.6-1.8v-5.8h1.2v5.7c0,.8-.2,1.4-.5,1.9-.3.5-.7.9-1.2,1.2s-1.1.4-1.7.4-1.2-.1-1.7-.4-.9-.6-1.2-1.2c-.3-.5-.5-1.2-.5-1.9v-5.7h1.2Z"/>
    <path class="st1" d="M203.4,116.6h4.4v1h-5.9v-.9l4.4-7.1h-4.4v-1h5.8v.9l-4.4,7.1Z"/>
    <path class="st1" d="M210.7,109.5v3h3.3v1h-3.3v3.1h3.7v1h-4.9v-9.1h4.9v1h-3.7Z"/>
    <path class="st1" d="M217.5,117.4c-.5-.2-.8-.5-1.1-.9-.3-.4-.4-.8-.4-1.3h1.3c0,.4.2.8.5,1.1.3.3.8.4,1.4.4s1-.1,1.3-.4.5-.6.5-1.1,0-.6-.3-.8-.4-.4-.7-.5c-.3-.1-.7-.2-1.2-.4-.6-.2-1.1-.3-1.4-.5-.4-.2-.7-.4-.9-.7-.3-.3-.4-.8-.4-1.4s.1-.9.4-1.3c.3-.4.6-.7,1.1-.9.5-.2,1-.3,1.6-.3.9,0,1.6.2,2.1.6.5.4.9,1,.9,1.7h-1.3c0-.3-.2-.7-.5-.9-.3-.3-.7-.4-1.3-.4s-.9.1-1.2.4c-.3.3-.5.6-.5,1.1s0,.6.3.8c.2.2.4.4.7.5.3.1.7.2,1.2.4.6.2,1.1.3,1.5.5.4.2.7.4.9.7.3.3.4.8.4,1.4s-.1.9-.4,1.3c-.2.4-.6.7-1,1-.5.2-1,.4-1.6.4s-1.1-.1-1.6-.3Z"/>
  </g>
</svg>